<svg width="119" height="75" viewBox="0 0 119 75" fill="none" xmlns="http://www.w3.org/2000/svg">
<path d="M11.28 52.4431C12.3067 52.7364 13.1133 53.2297 13.7 53.9231C14.2867 54.6164 14.58 55.4164 14.58 56.3231C14.58 57.1631 14.24 57.9564 13.56 58.7031C12.8933 59.4364 12.0533 60.0231 11.04 60.4631C10.04 60.9031 9.08667 61.1231 8.18 61.1231C7.51333 61.1231 6.86 61.0897 6.22 61.0231C5.15333 60.9564 4.32667 60.9231 3.74 60.9231H1.2V60.3031L3.08 58.8231V46.6631L1 45.9831L1.4 45.1831H3.72C4.93333 45.1831 6.12667 45.1431 7.3 45.0631C8.20667 45.0097 8.87333 44.9831 9.3 44.9831C10.1933 44.9831 10.98 45.1564 11.66 45.5031C12.34 45.8497 12.86 46.3231 13.22 46.9231C13.5933 47.5097 13.78 48.1697 13.78 48.9031C13.78 49.5697 13.5467 50.2097 13.08 50.8231C12.6267 51.4231 12.0267 51.9497 11.28 52.4031V52.4431ZM11.08 49.9031C11.08 48.8497 10.8 47.9897 10.24 47.3231C9.68 46.6564 8.84667 46.3231 7.74 46.3231C6.94 46.3231 6.22 46.5497 5.58 47.0031V52.3031H8.44C9.26667 52.3031 9.91333 52.0964 10.38 51.6831C10.8467 51.2564 11.08 50.6564 11.08 49.8831V49.9031ZM8.74 59.6631C9.7 59.6631 10.46 59.4231 11.02 58.9431C11.5933 58.4631 11.88 57.8164 11.88 57.0031C11.88 55.9631 11.5733 55.1231 10.96 54.4831C10.36 53.8431 9.46 53.5031 8.26 53.4631C8.16667 53.4764 8.04 53.4831 7.88 53.4831H5.58V59.1431C6.47333 59.5031 7.52667 59.6831 8.74 59.6831V59.6631ZM22.0613 60.9031H16.4813V60.2831L18.2613 58.8831V46.5831L16.4813 45.3431V44.7231L19.9013 43.4431H20.6613V59.4031L22.4613 60.1031L22.0613 60.9031ZM30.5841 50.0831C31.4641 50.0831 32.2507 50.3164 32.9441 50.7831C33.6507 51.2364 34.1974 51.8564 34.5841 52.6431C34.9841 53.4297 35.1841 54.2964 35.1841 55.2431C35.1841 56.2697 34.8707 57.2364 34.2441 58.1431C33.6174 59.0364 32.8307 59.7564 31.8841 60.3031C30.9507 60.8364 30.0441 61.1031 29.1641 61.1031C28.2841 61.1031 27.4907 60.8764 26.7841 60.4231C26.0907 59.9564 25.5441 59.3297 25.1441 58.5431C24.7574 57.7564 24.5641 56.8897 24.5641 55.9431C24.5641 54.9164 24.8774 53.9564 25.5041 53.0631C26.1307 52.1564 26.9107 51.4364 27.8441 50.9031C28.7907 50.3564 29.7041 50.0831 30.5841 50.0831ZM29.4241 51.7631C27.9174 51.7631 27.1641 52.8364 27.1641 54.9831C27.1641 56.2497 27.4374 57.3097 27.9841 58.1631C28.5307 59.0031 29.3107 59.4231 30.3241 59.4231C31.8307 59.4231 32.5841 58.3431 32.5841 56.1831C32.5841 54.9297 32.3107 53.8831 31.7641 53.0431C31.2174 52.1897 30.4374 51.7631 29.4241 51.7631ZM44.002 50.0831C44.882 50.0831 45.6687 50.3164 46.362 50.7831C47.0687 51.2364 47.6154 51.8564 48.002 52.6431C48.402 53.4297 48.602 54.2964 48.602 55.2431C48.602 56.2697 48.2887 57.2364 47.662 58.1431C47.0354 59.0364 46.2487 59.7564 45.302 60.3031C44.3687 60.8364 43.462 61.1031 42.582 61.1031C41.702 61.1031 40.9087 60.8764 40.202 60.4231C39.5087 59.9564 38.962 59.3297 38.562 58.5431C38.1754 57.7564 37.982 56.8897 37.982 55.9431C37.982 54.9164 38.2954 53.9564 38.922 53.0631C39.5487 52.1564 40.3287 51.4364 41.262 50.9031C42.2087 50.3564 43.122 50.0831 44.002 50.0831ZM42.842 51.7631C41.3354 51.7631 40.582 52.8364 40.582 54.9831C40.582 56.2497 40.8554 57.3097 41.402 58.1631C41.9487 59.0031 42.7287 59.4231 43.742 59.4231C45.2487 59.4231 46.002 58.3431 46.002 56.1831C46.002 54.9297 45.7287 53.8831 45.182 53.0431C44.6354 52.1897 43.8554 51.7631 42.842 51.7631ZM63.18 60.9031H59.38V59.4631L57.52 60.9431C57.0933 61.0497 56.58 61.1031 55.98 61.1031C55.1 61.1031 54.3067 60.8764 53.6 60.4231C52.9067 59.9564 52.36 59.3297 51.96 58.5431C51.5733 57.7564 51.38 56.8897 51.38 55.9431C51.38 54.9164 51.6933 53.9564 52.32 53.0631C52.9467 52.1564 53.7267 51.4364 54.66 50.9031C55.6067 50.3564 56.52 50.0831 57.4 50.0831C58.1333 50.0831 58.8 50.2897 59.4 50.7031V46.5831L57.62 45.3431V44.7231L61.04 43.4431H61.8V59.4031L63.58 60.1031L63.18 60.9031ZM57 59.4031C57.4 59.4031 57.78 59.3497 58.14 59.2431C58.5133 59.1231 58.9267 58.9031 59.38 58.5831V54.0231C59.3 53.3564 58.9867 52.8164 58.44 52.4031C57.9067 51.9764 57.1733 51.7631 56.24 51.7631C54.7333 51.7631 53.98 52.8364 53.98 54.9831C53.98 56.2364 54.24 57.2897 54.76 58.1431C55.28 58.9831 56.0267 59.4031 57 59.4031Z" fill="black"/>
<path d="M77.3016 60.9031H65.3016V60.2831L67.1816 58.8031V46.6831L65.1016 45.9831L65.5016 45.1831H71.5816V45.8031L69.6816 47.2831V60.0031H74.8416L77.7816 55.6631L78.3816 55.8631V61.2631L77.3016 60.9031ZM86.4652 60.9031H80.8852V60.2831L82.6652 58.8831V53.0431L80.8852 51.8031V51.1831L84.3052 49.9031H85.0652V59.4031L86.8652 60.1031L86.4652 60.9031ZM83.7852 43.9031C84.1852 43.9031 84.5118 44.0497 84.7652 44.3431C85.0318 44.6364 85.1652 45.0031 85.1652 45.4431C85.1652 45.7497 85.0718 46.0431 84.8852 46.3231C84.6985 46.5897 84.4652 46.8031 84.1852 46.9631C83.9052 47.1231 83.6318 47.2031 83.3652 47.2031C82.9652 47.2031 82.6318 47.0564 82.3652 46.7631C82.1118 46.4697 81.9852 46.1031 81.9852 45.6631C81.9852 45.3564 82.0785 45.0697 82.2652 44.8031C82.4518 44.5231 82.6852 44.3031 82.9652 44.1431C83.2452 43.9831 83.5185 43.9031 83.7852 43.9031ZM101.039 60.9231H97.2386V54.1831C97.2386 53.4497 97.1253 52.9364 96.8986 52.6431C96.6719 52.3497 96.2653 52.2031 95.6786 52.2031C95.2386 52.2031 94.7986 52.2831 94.3586 52.4431C93.9319 52.6031 93.4253 52.9097 92.8386 53.3631V59.4231L94.6386 60.1231L94.2386 60.9231H88.6586V60.3031L90.4386 58.9031V53.2431L88.6586 52.2031V51.5831L92.0786 49.9031L92.7386 52.5031L95.5786 50.2431C95.8586 50.1364 96.2253 50.0831 96.6786 50.0831C97.5853 50.0831 98.3053 50.3631 98.8386 50.9231C99.3719 51.4697 99.6386 52.2164 99.6386 53.1631V59.4031L101.439 60.1231L101.039 60.9231ZM108.614 60.1031L108.214 60.9031H102.634V60.2831L104.414 58.8831V46.5831L102.634 45.3431V44.7231L106.054 43.4431H106.814V59.4031L108.614 60.1031ZM115.014 60.9031H111.634L107.874 55.6231L111.614 52.4831L109.694 51.0831L110.094 50.2831H114.874V50.9031L110.234 54.8031L113.614 59.4031L115.414 60.1031L115.014 60.9031Z" fill="#F44236"/>
<path d="M32 34.2351C32 35.8598 32.34 37.3916 32.9633 38.8771H32C22.6217 38.8771 15 32.6335 15 24.951C15 15.6669 32 0 32 0C32 0 44.2117 11.2569 47.9233 20.3089C39.0833 20.8196 32 26.8542 32 34.2351ZM51.8333 31.914V24.951H46.1667V31.914H37.6667V36.5561H46.1667V43.5191H51.8333V36.5561H60.3333V31.914H51.8333Z" fill="#DA0027"/>
</svg>
